<svg t="1656598287490" class="icon" viewBox="0 0 1024 1024" version="1.1" xmlns="http://www.w3.org/2000/svg" p-id="1462" width="1200" height="1200"><path d="M342.646154 90.584615c53.169231-19.692308 110.276923-29.538462 169.353846-29.538461s116.184615 9.846154 169.353846 29.538461C699.076923 61.046154 730.584615 39.384615 768 39.384615c55.138462 0 98.461538 43.323077 98.461538 98.461539 0 15.753846-3.938462 31.507692-9.846153 45.292308 23.630769 19.692308 39.384615 84.676923 49.230769 191.015384 7.876923 59.076923 59.076923 238.276923 59.076923 275.692308 1.969231 157.538462-149.661538 267.815385-452.923077 334.769231-301.292308-64.984615-452.923077-177.230769-452.923077-334.769231 0-41.353846 49.230769-214.646154 59.076923-275.692308 11.815385-104.369231 29.538462-167.384615 51.2-189.046154C161.476923 171.323077 157.538462 155.569231 157.538462 137.846154c0-55.138462 43.323077-98.461538 98.461538-98.461539 37.415385 0 68.923077 21.661538 86.646154 51.2zM413.538462 447.015385c-35.446154 9.846154-57.107692 43.323077-55.138462 80.738461l7.876923 122.092308c3.938462 76.8 68.923077 137.846154 145.723077 137.846154 76.8 0 141.784615-61.046154 145.723077-137.846154l7.876923-120.123077c1.969231-37.415385-19.692308-68.923077-55.138462-80.738462-35.446154-9.846154-70.892308-15.753846-106.338461-15.753846-31.507692 0-63.015385 3.938462-90.584615 13.784616z m295.384615 5.907692c33.476923 0 59.076923-35.446154 59.076923-78.769231s-25.6-78.769231-59.076923-78.769231-59.076923 35.446154-59.076923 78.769231 25.6 78.769231 59.076923 78.769231z m-393.846154 0c33.476923 0 59.076923-35.446154 59.076923-78.769231s-25.6-78.769231-59.076923-78.769231-59.076923 35.446154-59.076923 78.769231 25.6 78.769231 59.076923 78.769231z m257.969231 92.553846c-35.446154 39.384615-92.553846 39.384615-126.030769 0-33.476923-39.384615-5.907692-72.861538 63.015384-72.861538s96.492308 33.476923 63.015385 72.861538z" p-id="1463" fill="#41b883"></path></svg>